<?xml version="1.0" encoding="utf-8"?>
<!-- Generator: Adobe Illustrator 23.1.0, SVG Export Plug-In . SVG Version: 6.00 Build 0)  -->
<svg version="1.1" id="Layer_1" xmlns="http://www.w3.org/2000/svg" xmlns:xlink="http://www.w3.org/1999/xlink" x="0px" y="0px"
	 viewBox="0 0 38.5 41.4" style="enable-background:new 0 0 38.5 41.4;" xml:space="preserve">
<style type="text/css">
	.st0{fill:#F8D925;stroke:#000000;stroke-miterlimit:10;}
</style>
<path class="st0" d="M34.5,17.5c1-4,2.8-7.6,3.5-11.8c0.7-4.4-6.2-5.6-6.9-1.2c-0.4,2.8-1.2,5.5-2.4,8c0,0,0,0-0.1,0
	c-1.2-2.4-1.3-5.7-0.9-8c0.8-4.4-6.1-5.6-6.8-1.2c-0.6,3.2-0.3,6.4,0.6,9.5c1.4,4.5,2.7,9.4-0.9,13.2c-3.4,3.6-9.1,4.5-13.8,3.5
	c-5.2-1.1-8.6,6.5-4.4,9.7c1,0.8,2.2,1.1,3.4,1.3c6.2,1.1,12.8-0.1,18.1-3.5c6.9-4.3,9.1-10.4,10.3-18C34.3,18.5,34.4,18,34.5,17.5z
	"/>
</svg>
