<?xml version="1.0" encoding="utf-8"?>
<!-- Generator: Adobe Illustrator 23.1.0, SVG Export Plug-In . SVG Version: 6.00 Build 0)  -->
<svg version="1.1" id="Layer_1" xmlns="http://www.w3.org/2000/svg" xmlns:xlink="http://www.w3.org/1999/xlink" x="0px" y="0px"
	 viewBox="0 0 83.3 116.8" style="enable-background:new 0 0 83.3 116.8;" xml:space="preserve">
<style type="text/css">
	.st0{fill:#F8D925;stroke:#000000;stroke-miterlimit:10;}
	.st1{fill:#FFFFFF;stroke:#000000;stroke-miterlimit:10;}
	.st2{stroke:#000000;stroke-miterlimit:10;}
	.st3{fill:none;stroke:#000000;stroke-miterlimit:10;}
	.st4{fill:none;stroke:#000000;stroke-linecap:round;stroke-miterlimit:10;}
</style>
<path class="st0" d="M70.2,23.6c-2.9-2.6-6.3-4.9-10.1-7.1c-3.4-2-6.4-4.9-8.5-8.3c-1.5-2.5-3.5-6.4-6.5-7.2c-6-1.7-13,1-15.4,6.9
	c-2.7,6.6-8.6,10.8-12.8,16.3c-5,6.4-9.7,13.6-13,21.1c-6.9,16.1-3,35.1,8.2,48.2c1.5,1.7,3,3.4,4.9,4.6c2.3,1.4,4.9,1.9,7,3.5
	c2.2,1.6,3.9,3.9,5.4,6.2c1.6,2.5,3,5.4,5.4,7.1c5.4,3.8,10.7-1,14.4-4.8c2.1-2.2,4-4.3,6.4-6.2c6.4-5,13.7-9.1,19.1-15.2
	c6.4-7.3,8.3-16.9,8.1-26.3c-0.1-8.7-1-17.6-4-25.7C76.9,31,73.9,27,70.2,23.6z"/>
<path d="M45.2,2.1c-2.9,1.8-6.5,0.7-9.4-0.3c-0.6-0.2-0.9,0.8-0.3,1c1.5,0.5,3.1,1,4.7,1.2c-0.1,0.5-0.3,1.1-0.4,1.6
	c-0.1,0.3,0.1,0.6,0.3,0.6c0.3,0.1,0.5-0.1,0.6-0.3c0.2-0.6,0.3-1.2,0.5-1.8c0.6,0,1.2,0,1.8-0.1c0,0.2,0,0.3,0.1,0.5
	c0.1,0.1,0.2,0.2,0.2,0.3l0,0c0,0,0,0,0,0.1L43.4,5c0.1,0.1,0.1,0.2,0.2,0.3c0,0.1,0.1,0.1,0.1,0.2v0.1l0,0l0,0
	c0.2,0,0.3,0.3,0.3,0.5c0,0.1,0,0.1,0,0.2l0,0l0,0c0,0.1,0,0.2,0,0.4c0,0.3,0.2,0.5,0.5,0.5S45,7,45,6.7c0-1.1-0.4-2.2-1.2-3
	c0.6-0.2,1.3-0.4,1.8-0.8C46.3,2.6,45.8,1.7,45.2,2.1z"/>
<path d="M35.4,10.5c-0.3,0-0.5,0.2-0.5,0.5c0,0.2,0,0.4,0,0.6v0.1v0.1c0,0.1,0,0.2-0.1,0.3c0,0.2-0.1,0.4-0.2,0.6v0.1l0,0l0,0
	c0,0.1-0.1,0.2-0.1,0.3c-0.1,0.2-0.1,0.6,0.2,0.7c0.2,0.1,0.6,0.1,0.7-0.2c0.4-0.8,0.7-1.7,0.6-2.7C35.9,10.8,35.7,10.5,35.4,10.5z"
	/>
<path d="M30.6,18.2c-0.2-0.2-0.5-0.2-0.7,0c-1.3,1-2.3,2.3-3,3.7c-0.1,0.2-0.1,0.5,0.2,0.7c0.2,0.1,0.6,0.1,0.7-0.2
	c0.7-1.4,1.6-2.5,2.8-3.5C30.8,18.7,30.8,18.3,30.6,18.2z"/>
<path d="M18.8,32.1c-0.3-0.1-0.5,0.1-0.6,0.3c-0.4,1.2-0.9,2.3-1.3,3.5c-0.1,0.3,0.1,0.5,0.3,0.6c0.3,0.1,0.5-0.1,0.6-0.3
	c0.4-1.2,0.9-2.3,1.3-3.5C19.3,32.5,19.1,32.2,18.8,32.1z"/>
<path d="M12,40c-0.2-0.2-0.5-0.2-0.7,0c-0.6,0.6-1.2,1.3-1.6,2.1c-0.1,0.2-0.1,0.6,0.2,0.7c0.2,0.1,0.5,0.1,0.7-0.2
	c0.2-0.4,0.4-0.7,0.7-1l0,0c0,0,0,0,0-0.1l0.1-0.1c0.1-0.1,0.1-0.2,0.2-0.2c0.1-0.2,0.3-0.3,0.4-0.5C12.2,40.5,12.2,40.2,12,40z"/>
<g>
	<path d="M16.7,46.5L16.7,46.5C16.7,46.4,16.7,46.5,16.7,46.5z"/>
	<path d="M17.2,45.5c-0.2-0.2-0.4-0.3-0.7-0.2c-0.9,0.5-1.3,1.6-1,2.5c0.1,0.2,0.3,0.4,0.6,0.3c0.2-0.1,0.4-0.4,0.3-0.6
		c0-0.1,0-0.2-0.1-0.2l0,0v-0.1v-0.1l0,0c0-0.1,0-0.2,0.1-0.3l0,0c0,0,0,0,0-0.1c0,0,0-0.1,0.1-0.1c0,0,0-0.1,0.1-0.1l0,0
		c0,0,0,0,0-0.1c0.1-0.1,0.1-0.1,0.2-0.2l0,0l0.1-0.1C17.3,46.1,17.4,45.7,17.2,45.5z"/>
	<path d="M16.5,46.7L16.5,46.7C16.6,46.7,16.6,46.7,16.5,46.7z"/>
</g>
<path d="M11.7,51.5c-0.3,0-0.5,0.2-0.5,0.5v1.6c0,0.3,0.2,0.5,0.5,0.5s0.5-0.2,0.5-0.5V52C12.2,51.8,12,51.5,11.7,51.5z"/>
<path d="M7,65c-0.6-1-0.7-2.3-0.2-3.4c0.1-0.3-0.1-0.5-0.3-0.6c-0.3-0.1-0.5,0.1-0.6,0.3c-0.5,1.3-0.4,2.9,0.3,4.2
	C6.5,66,7.3,65.5,7,65z"/>
<path d="M15.4,67.1c-0.2-0.3-0.4-0.5-0.5-0.8c-0.1-0.1-0.2-0.2-0.3-0.2s-0.3,0-0.4,0.1c-0.1,0.1-0.2,0.2-0.2,0.3
	c0,0.1,0,0.3,0.1,0.4c0.2,0.3,0.4,0.5,0.5,0.8c0.1,0.1,0.2,0.2,0.3,0.2s0.3,0,0.4-0.1c0.1-0.1,0.2-0.2,0.2-0.3
	C15.4,67.4,15.4,67.3,15.4,67.1z"/>
<path d="M12.6,80.3c-1.1-1.1-1.6-2.7-1.5-4.2c0-0.3-0.3-0.5-0.5-0.5c-0.3,0-0.5,0.2-0.5,0.5c-0.2,1.8,0.5,3.7,1.7,4.9
	C12.3,81.4,13,80.7,12.6,80.3z"/>
<path d="M18.9,79.1c-0.1-0.4-0.2-0.7-0.3-1.1c0-0.1-0.1-0.2-0.2-0.3c-0.1-0.1-0.3-0.1-0.4-0.1c-0.3,0.1-0.4,0.3-0.3,0.6
	c0.1,0.4,0.2,0.7,0.3,1.1c0,0.1,0.1,0.2,0.2,0.3c0.1,0.1,0.3,0.1,0.4,0.1C18.9,79.6,19,79.4,18.9,79.1z"/>
<path d="M20.9,85.8c-0.3,0-0.5,0.2-0.5,0.5v1.3c0,0.3,0.2,0.5,0.5,0.5s0.5-0.2,0.5-0.5v-1.3C21.4,86,21.1,85.8,20.9,85.8z"/>
<g>
	<g>
		<path class="st1" d="M62.9,47.1c0-4.1,2.8-7.5,6.4-7.6c-1.2-1-2.7-1.6-4.3-1.6c-4.2,0-7.7,4.3-7.7,9.6s3.4,9.6,7.7,9.6
			c1.9,0,3.7-0.9,5-2.3c-0.2,0-0.4,0-0.6,0C65.9,54.8,62.9,51.3,62.9,47.1z"/>
		<path class="st2" d="M69.3,39.5c-3.5,0.1-6.4,3.5-6.4,7.6c0,4.2,2.9,7.6,6.5,7.6c0.2,0,0.4,0,0.6,0c1.6-1.8,2.7-4.3,2.7-7.2
			C72.7,44.2,71.4,41.3,69.3,39.5z"/>
		<line class="st3" x1="58.7" y1="42" x2="55.4" y2="39.5"/>
		<line class="st3" x1="61.2" y1="39.2" x2="59.1" y2="36"/>
		<line class="st3" x1="63.7" y1="37.6" x2="63.7" y2="34.4"/>
		<line class="st3" x1="67.4" y1="38.4" x2="68.4" y2="34.4"/>
	</g>
	<g>
		<path class="st1" d="M35.9,48.1c0-4.1,2.8-7.5,6.4-7.6c-1.2-1-2.7-1.6-4.3-1.6c-4.2,0-7.7,4.3-7.7,9.6s3.4,9.6,7.7,9.6
			c1.9,0,3.7-0.9,5-2.3c-0.2,0-0.4,0-0.6,0C38.8,55.8,35.9,52.3,35.9,48.1z"/>
		<path class="st2" d="M42.2,40.5c-3.5,0.1-6.4,3.5-6.4,7.6c0,4.2,2.9,7.6,6.5,7.6c0.2,0,0.4,0,0.6,0c1.7-1.7,2.7-4.3,2.7-7.2
			C45.6,45.2,44.3,42.3,42.2,40.5z"/>
		<line class="st3" x1="31.7" y1="43" x2="28.4" y2="40.5"/>
		<line class="st3" x1="34.1" y1="40.2" x2="32" y2="37"/>
		<line class="st3" x1="36.6" y1="38.6" x2="36.6" y2="35.4"/>
		<line class="st3" x1="40.3" y1="39.4" x2="41.3" y2="35.4"/>
	</g>
	<line class="st4" x1="40.7" y1="59.9" x2="62.2" y2="59.9"/>
</g>
</svg>
