<?xml version="1.0" encoding="utf-8"?>
<!-- Generator: Adobe Illustrator 23.1.0, SVG Export Plug-In . SVG Version: 6.00 Build 0)  -->
<svg version="1.1" id="Layer_1" xmlns="http://www.w3.org/2000/svg" xmlns:xlink="http://www.w3.org/1999/xlink" x="0px" y="0px"
	 viewBox="0 0 39.3 25.5" style="enable-background:new 0 0 39.3 25.5;" xml:space="preserve">
<style type="text/css">
	.st0{fill:#35AF0C;stroke:#000000;stroke-linecap:round;stroke-miterlimit:10;}
</style>
<g>
	<path class="st0" d="M18.2,2.3c10-5.1,20.6,2.4,20.6,2.4s-0.2,13-10.2,18c-4.4,2.2-9.9,2.5-14.7,2.2c-0.7-0.1-1.4-0.3-2.3-0.6
		C8,23.5,5.3,24.8,1.3,23.5c1.8-0.9,1.8-3.1,2.8-4.3c0.3-0.5,0.6-1,0.9-1.5C7.5,12.7,12,5.4,18.2,2.3z"/>
	<path d="M37.4,4.6c-7.2,2.2-14.1,5.5-20.4,9.6c-0.5,0.4,0,1.2,0.5,0.9c3.1-2.1,6.4-3.9,9.8-5.5c0,0-0.1,0.1-0.1,0.1
		c-0.9,2.1-2.1,4-3.6,5.7c-0.2,0.2-0.2,0.5,0,0.7c0.2,0.2,0.5,0.2,0.7,0c1.5-1.8,2.8-3.8,3.7-5.9c0.1-0.2,0.1-0.5-0.2-0.7
		c-0.1-0.1-0.2-0.1-0.3-0.1c3.3-1.5,6.7-2.8,10.1-3.9C38.2,5.4,38,4.4,37.4,4.6z"/>
	<path d="M20.5,9.4c-1.7-0.1-3.4-0.1-5.1,0.1c-0.3,0-0.5,0.2-0.5,0.5c0,0.2,0.2,0.5,0.5,0.5c1.7-0.2,3.4-0.3,5.1-0.1
		c0.3,0,0.5-0.2,0.5-0.5C21,9.6,20.8,9.5,20.5,9.4z"/>
</g>
</svg>
